<svg width="1200" height="630" viewBox="0 0 1200 630" fill="none" xmlns="http://www.w3.org/2000/svg">
  <defs>
    <radialGradient id="bgGradient" cx="50%" cy="10%" r="80%">
      <stop offset="0%" stop-color="#3224A7" stop-opacity="0.95" />
      <stop offset="55%" stop-color="#160742" stop-opacity="0.95" />
      <stop offset="100%" stop-color="#050015" />
    </radialGradient>
    <radialGradient id="spotGradient" cx="50%" cy="38%" r="48%">
      <stop offset="0%" stop-color="#FFEBCD" stop-opacity="0.52" />
      <stop offset="55%" stop-color="#FF9BD9" stop-opacity="0.26" />
      <stop offset="100%" stop-color="#2B0B55" stop-opacity="0.6" />
    </radialGradient>
    <linearGradient id="stageGradient" x1="0%" y1="0%" x2="100%" y2="100%">
      <stop offset="0%" stop-color="#FFE7C9" stop-opacity="0.65" />
      <stop offset="55%" stop-color="#F173BA" stop-opacity="0.48" />
      <stop offset="100%" stop-color="#2F0F60" />
    </linearGradient>
    <linearGradient id="beamGradient" x1="0%" y1="0%" x2="100%" y2="100%">
      <stop offset="0%" stop-color="#FFE6FA" stop-opacity="0.55" />
      <stop offset="70%" stop-color="#F9FFCB" stop-opacity="0.26" />
      <stop offset="100%" stop-color="#F9FFCB" stop-opacity="0" />
    </linearGradient>
    <radialGradient id="furGradient" cx="50%" cy="35%" r="65%">
      <stop offset="0%" stop-color="#FFFFFF" />
      <stop offset="60%" stop-color="#E6F0FF" />
      <stop offset="100%" stop-color="#BFD3FF" />
    </radialGradient>
  </defs>
  <rect width="1200" height="630" fill="url(#bgGradient)" />
  <ellipse cx="600" cy="360" rx="520" ry="380" fill="url(#spotGradient)" opacity="0.55" />
  <g opacity="0.6">
    <polygon points="120 0 260 0 530 630 380 630" fill="url(#beamGradient)" />
    <polygon points="980 0 1120 0 820 630 670 630" fill="url(#beamGradient)" />
    <polygon points="480 0 720 0 620 630 500 630" fill="url(#beamGradient)" opacity="0.65" />
  </g>
  <ellipse cx="600" cy="520" rx="420" ry="120" fill="url(#stageGradient)" />
  <ellipse cx="600" cy="530" rx="360" ry="90" fill="#F2C1FF" opacity="0.18" />
  <ellipse cx="600" cy="540" rx="330" ry="70" fill="#A07BFF" opacity="0.22" />

  <g transform="translate(360 230)">
    <ellipse cx="50" cy="145" rx="46" ry="72" fill="url(#furGradient)" />
    <ellipse cx="50" cy="85" rx="34" ry="38" fill="#FFFFFF" stroke="#DCE9FF" stroke-width="3" />
    <ellipse cx="32" cy="80" rx="8" ry="14" fill="#19274F" />
    <ellipse cx="68" cy="80" rx="8" ry="14" fill="#19274F" />
    <path d="M50 100 Q57 108 64 100" stroke="#F38DB9" stroke-width="3" stroke-linecap="round" />
    <path d="M18 70 L34 40 L50 70" fill="#F8B8D6" opacity="0.75" />
    <path d="M82 70 L96 40 L110 70" fill="#F8B8D6" opacity="0.75" />
    <ellipse cx="50" cy="32" rx="48" ry="22" fill="#FAD66F" opacity="0.85" />
    <rect x="28" y="14" width="44" height="18" rx="6" fill="#E86AD4" opacity="0.6" />
    <path d="M28 140 L50 170 L72 140" fill="#FFFFFF" opacity="0.9" />
  </g>

  <g transform="translate(530 240)">
    <ellipse cx="50" cy="150" rx="48" ry="75" fill="url(#furGradient)" />
    <ellipse cx="50" cy="90" rx="36" ry="42" fill="#FFFFFF" stroke="#DCE9FF" stroke-width="3" />
    <ellipse cx="30" cy="88" rx="8" ry="15" fill="#1D2448" />
    <ellipse cx="70" cy="88" rx="8" ry="15" fill="#1D2448" />
    <path d="M50 112 Q56 116 62 112" stroke="#F082AE" stroke-width="3" stroke-linecap="round" />
    <path d="M20 75 L40 45 L54 76" fill="#F8B8D6" opacity="0.75" />
    <path d="M96 75 L80 45 L66 76" fill="#F8B8D6" opacity="0.75" />
    <rect x="30" y="20" width="40" height="24" rx="10" fill="#FFE7C2" opacity="0.85" />
    <rect x="36" y="44" width="28" height="52" rx="12" fill="#E1F3FF" opacity="0.85" />
    <path d="M28 150 L50 185 L72 150" fill="#FFFFFF" opacity="0.9" />
  </g>

  <g transform="translate(700 230)">
    <ellipse cx="50" cy="145" rx="46" ry="70" fill="url(#furGradient)" />
    <ellipse cx="50" cy="86" rx="33" ry="38" fill="#FFFFFF" stroke="#DCE9FF" stroke-width="3" />
    <ellipse cx="32" cy="84" rx="8" ry="14" fill="#1C2B4C" />
    <ellipse cx="68" cy="84" rx="8" ry="14" fill="#1C2B4C" />
    <path d="M50 104 Q56 110 62 104" stroke="#F28AAE" stroke-width="3" stroke-linecap="round" />
    <path d="M18 72 L36 42 L52 74" fill="#F8B8D6" opacity="0.75" />
    <path d="M86 72 L66 42 L48 74" fill="#F8B8D6" opacity="0.75" />
    <ellipse cx="50" cy="34" rx="48" ry="20" fill="#FAD66F" opacity="0.85" />
    <rect x="26" y="16" width="48" height="16" rx="6" fill="#8F3CF7" opacity="0.6" />
    <path d="M24 134 L50 162 L76 134" fill="#FFFFFF" opacity="0.9" />
  </g>

  <text x="600" y="120" text-anchor="middle" fill="#FDF4FF" font-family="'Segoe UI', 'Helvetica Neue', sans-serif" font-size="60" font-weight="600" letter-spacing="0.28em">
    CABARET DES CHATONS
  </text>
  <text x="600" y="168" text-anchor="middle" fill="#F5D6FF" font-family="'Segoe UI', 'Helvetica Neue', sans-serif" font-size="24" letter-spacing="0.48em">
    REVUE LUMINEUSE
  </text>
</svg>
